# xmcd CD database file
#
# Track frame offsets:
#	183
#	16033
#	27883
#	41133
#	56833
#	70408
#	81758
#	94608
#	111858
#	125245
#	139670
#	155883
#	170220
#	188945
#	203295
#	214758
#
# Disc length: 3042 seconds
#
# Revision: 1
# Processed by: cddbd v1.5.2PL0 Copyright (c) Steve Scherf et al.
# Submitted via: CDex 1.51
#
DISCID=e70be010
DTITLE=Mungo Jerry - The Hits And Some More
DYEAR=1991
DGENRE=Blues
TTITLE0=In The Summertime - Mungo Jerry
TTITLE1=Alright Alright Alright - Mungo Jerry
TTITLE2=Lady Rose - Mungo Jerry
TTITLE3=Lana - Mungo Jerry
TTITLE4=It's A Secret - Mungo Jerry
TTITLE5=Duke Street Stomp - Mungo Jerry
TTITLE6=Wild Love - Mungo Jerry
TTITLE7=Open Up - Mungo Jerry
TTITLE8=Got A Job - Mungo Jerry
TTITLE9=You Don't Have To Be In The Army To Fight In The War - Mungo Jerry
TTITLE10=Let's Get Started - Mungo Jerry
TTITLE11=Forgotten Land - Mungo Jerry
TTITLE12=Baby Jump - Mungo Jerry
TTITLE13=Feels Like I'm In Love - Mungo Jerry
TTITLE14=The Pushbike Song - Mungo Jerry
TTITLE15=Long Legged Woman Dressed In Black - Mungo Jerry
EXTD=YEAR: 1991
EXTT0=
EXTT1=
EXTT2=
EXTT3=
EXTT4=
EXTT5=
EXTT6=
EXTT7=
EXTT8=
EXTT9=
EXTT10=
EXTT11=
EXTT12=
EXTT13=
EXTT14=
EXTT15=
PLAYORDER=
